<mxfile host="app.diagrams.net" modified="2023-11-14T14:01:14.138Z" agent="Mozilla/5.0 (Windows NT 10.0; Win64; x64) AppleWebKit/537.36 (KHTML, like Gecko) Chrome/119.0.0.0 Safari/537.36" etag="jcTTWwuErzdAqbVz747P" version="22.1.0" type="device">
  <diagram name="Страница — 1" id="qOUhVUbfRyW9krve8uwG">
    <mxGraphModel dx="951" dy="545" grid="0" gridSize="10" guides="1" tooltips="1" connect="1" arrows="1" fold="1" page="1" pageScale="1" pageWidth="827" pageHeight="1169" background="#FFFFFF" math="0" shadow="0">
      <root>
        <mxCell id="0" />
        <mxCell id="1" parent="0" />
        <mxCell id="4RLCPVnjVEkTh-LawadL-25" value="подтвердить" style="html=1;verticalAlign=bottom;startArrow=oval;endArrow=block;startSize=8;curved=0;rounded=0;entryX=0;entryY=0;entryDx=0;entryDy=5;" edge="1" parent="1">
          <mxGeometry relative="1" as="geometry">
            <mxPoint x="90" y="390" as="sourcePoint" />
            <mxPoint x="459" y="389" as="targetPoint" />
          </mxGeometry>
        </mxCell>
        <mxCell id="4RLCPVnjVEkTh-LawadL-19" value="dispatch" style="html=1;verticalAlign=bottom;startArrow=oval;endArrow=block;startSize=8;curved=0;rounded=0;entryX=0;entryY=0;entryDx=0;entryDy=5;" edge="1" target="4RLCPVnjVEkTh-LawadL-18" parent="1">
          <mxGeometry relative="1" as="geometry">
            <mxPoint x="90" y="285" as="sourcePoint" />
          </mxGeometry>
        </mxCell>
        <mxCell id="4RLCPVnjVEkTh-LawadL-17" value="dispatch" style="html=1;verticalAlign=bottom;startArrow=oval;endArrow=block;startSize=8;curved=0;rounded=0;entryX=0;entryY=0;entryDx=0;entryDy=5;entryPerimeter=0;" edge="1" target="4RLCPVnjVEkTh-LawadL-16" parent="1">
          <mxGeometry relative="1" as="geometry">
            <mxPoint x="90" y="225" as="sourcePoint" />
          </mxGeometry>
        </mxCell>
        <mxCell id="4RLCPVnjVEkTh-LawadL-22" value="opt" style="shape=umlFrame;whiteSpace=wrap;html=1;pointerEvents=0;width=40;height=15;" vertex="1" parent="1">
          <mxGeometry x="40" y="360" width="480" height="60" as="geometry" />
        </mxCell>
        <mxCell id="4RLCPVnjVEkTh-LawadL-14" value="loop" style="shape=umlFrame;whiteSpace=wrap;html=1;pointerEvents=0;" vertex="1" parent="1">
          <mxGeometry x="10" y="150" width="400" height="200" as="geometry" />
        </mxCell>
        <mxCell id="4RLCPVnjVEkTh-LawadL-15" value="alt" style="shape=umlFrame;whiteSpace=wrap;html=1;pointerEvents=0;width=50;height=20;" vertex="1" parent="1">
          <mxGeometry x="25" y="190" width="370" height="150" as="geometry" />
        </mxCell>
        <mxCell id="4RLCPVnjVEkTh-LawadL-8" value=":Order" style="shape=umlLifeline;perimeter=lifelinePerimeter;whiteSpace=wrap;html=1;container=1;dropTarget=0;collapsible=0;recursiveResize=0;outlineConnect=0;portConstraint=eastwest;newEdgeStyle={&quot;curved&quot;:0,&quot;rounded&quot;:0};" vertex="1" parent="1">
          <mxGeometry x="40" y="70" width="100" height="370" as="geometry" />
        </mxCell>
        <mxCell id="4RLCPVnjVEkTh-LawadL-13" value="" style="html=1;points=[[0,0,0,0,5],[0,1,0,0,-5],[1,0,0,0,5],[1,1,0,0,-5]];perimeter=orthogonalPerimeter;outlineConnect=0;targetShapes=umlLifeline;portConstraint=eastwest;newEdgeStyle={&quot;curved&quot;:0,&quot;rounded&quot;:0};" vertex="1" parent="4RLCPVnjVEkTh-LawadL-8">
          <mxGeometry x="45" y="70" width="10" height="270" as="geometry" />
        </mxCell>
        <mxCell id="4RLCPVnjVEkTh-LawadL-9" value="careful : Distributor" style="shape=umlLifeline;perimeter=lifelinePerimeter;whiteSpace=wrap;html=1;container=1;dropTarget=0;collapsible=0;recursiveResize=0;outlineConnect=0;portConstraint=eastwest;newEdgeStyle={&quot;curved&quot;:0,&quot;rounded&quot;:0};" vertex="1" parent="1">
          <mxGeometry x="170" y="70" width="100" height="370" as="geometry" />
        </mxCell>
        <mxCell id="4RLCPVnjVEkTh-LawadL-10" value="regular : Distributor" style="shape=umlLifeline;perimeter=lifelinePerimeter;whiteSpace=wrap;html=1;container=1;dropTarget=0;collapsible=0;recursiveResize=0;outlineConnect=0;portConstraint=eastwest;newEdgeStyle={&quot;curved&quot;:0,&quot;rounded&quot;:0};" vertex="1" parent="1">
          <mxGeometry x="290" y="70" width="100" height="370" as="geometry" />
        </mxCell>
        <mxCell id="4RLCPVnjVEkTh-LawadL-18" value="" style="html=1;points=[[0,0,0,0,5],[0,1,0,0,-5],[1,0,0,0,5],[1,1,0,0,-5]];perimeter=orthogonalPerimeter;outlineConnect=0;targetShapes=umlLifeline;portConstraint=eastwest;newEdgeStyle={&quot;curved&quot;:0,&quot;rounded&quot;:0};" vertex="1" parent="4RLCPVnjVEkTh-LawadL-10">
          <mxGeometry x="45" y="210" width="10" height="40" as="geometry" />
        </mxCell>
        <mxCell id="4RLCPVnjVEkTh-LawadL-11" value=":Messenger" style="shape=umlLifeline;perimeter=lifelinePerimeter;whiteSpace=wrap;html=1;container=1;dropTarget=0;collapsible=0;recursiveResize=0;outlineConnect=0;portConstraint=eastwest;newEdgeStyle={&quot;curved&quot;:0,&quot;rounded&quot;:0};" vertex="1" parent="1">
          <mxGeometry x="414" y="70" width="100" height="370" as="geometry" />
        </mxCell>
        <mxCell id="4RLCPVnjVEkTh-LawadL-12" value="dispatch" style="html=1;verticalAlign=bottom;startArrow=circle;startFill=1;endArrow=open;startSize=6;endSize=8;curved=0;rounded=0;" edge="1" parent="1" target="4RLCPVnjVEkTh-LawadL-13">
          <mxGeometry x="0.3333" y="10" width="80" relative="1" as="geometry">
            <mxPoint x="40" y="140" as="sourcePoint" />
            <mxPoint x="80" y="140" as="targetPoint" />
            <mxPoint as="offset" />
          </mxGeometry>
        </mxCell>
        <mxCell id="4RLCPVnjVEkTh-LawadL-16" value="" style="html=1;points=[[0,0,0,0,5],[0,1,0,0,-5],[1,0,0,0,5],[1,1,0,0,-5]];perimeter=orthogonalPerimeter;outlineConnect=0;targetShapes=umlLifeline;portConstraint=eastwest;newEdgeStyle={&quot;curved&quot;:0,&quot;rounded&quot;:0};" vertex="1" parent="1">
          <mxGeometry x="215" y="220" width="10" height="20" as="geometry" />
        </mxCell>
        <mxCell id="4RLCPVnjVEkTh-LawadL-21" value="" style="line;strokeWidth=1;fillColor=none;align=left;verticalAlign=middle;spacingTop=-1;spacingLeft=3;spacingRight=3;rotatable=0;labelPosition=right;points=[];portConstraint=eastwest;strokeColor=inherit;dashed=1;" vertex="1" parent="1">
          <mxGeometry x="20" y="261" width="370" height="8" as="geometry" />
        </mxCell>
        <mxCell id="4RLCPVnjVEkTh-LawadL-24" value="" style="html=1;points=[[0,0,0,0,5],[0,1,0,0,-5],[1,0,0,0,5],[1,1,0,0,-5]];perimeter=orthogonalPerimeter;outlineConnect=0;targetShapes=umlLifeline;portConstraint=eastwest;newEdgeStyle={&quot;curved&quot;:0,&quot;rounded&quot;:0};" vertex="1" parent="1">
          <mxGeometry x="459" y="387" width="10" height="30" as="geometry" />
        </mxCell>
        <mxCell id="4RLCPVnjVEkTh-LawadL-26" value="[needsConfirmation]" style="text;align=center;html=1;verticalAlign=middle;whiteSpace=wrap;rounded=0;fillColor=default;" vertex="1" parent="1">
          <mxGeometry x="80" y="365" width="110" height="17" as="geometry" />
        </mxCell>
        <mxCell id="4RLCPVnjVEkTh-LawadL-27" value="[else]" style="text;align=center;html=1;verticalAlign=middle;whiteSpace=wrap;rounded=0;fillColor=default;" vertex="1" parent="1">
          <mxGeometry x="50" y="269" width="30" height="17" as="geometry" />
        </mxCell>
        <mxCell id="4RLCPVnjVEkTh-LawadL-28" value="[значение &amp;gt; $10000]" style="text;align=center;html=1;verticalAlign=middle;whiteSpace=wrap;rounded=0;fillColor=default;direction=south;" vertex="1" parent="1">
          <mxGeometry x="78.25" y="160" width="113.5" height="20" as="geometry" />
        </mxCell>
      </root>
    </mxGraphModel>
  </diagram>
</mxfile>
